<svg width="24" height="24" viewBox="0 0 24 24" fill="none" xmlns="http://www.w3.org/2000/svg">
<path d="M14.25 7.5V5.25C14.25 4.72689 14.25 4.46534 14.1925 4.25074C14.0365 3.6684 13.5816 3.21354 12.9993 3.0575C12.7847 3 12.5231 3 12 3C11.4769 3 11.2153 3 11.0007 3.0575C10.4184 3.21354 9.96354 3.6684 9.8075 4.25074C9.75 4.46534 9.75 4.72689 9.75 5.25V7.5C9.75 8.56066 9.75 9.09099 9.42049 9.42049C9.09099 9.75 8.56066 9.75 7.5 9.75L5.25 9.75C4.72689 9.75 4.46534 9.75 4.25074 9.8075C3.6684 9.96354 3.21354 10.4184 3.0575 11.0007C3 11.2153 3 11.4769 3 12C3 12.5231 3 12.7847 3.0575 12.9993C3.21354 13.5816 3.6684 14.0365 4.25074 14.1925C4.46534 14.25 4.72689 14.25 5.25 14.25H7.5C8.56066 14.25 9.09099 14.25 9.42049 14.5795C9.75 14.909 9.75 15.4393 9.75 16.5V18.75C9.75 19.2731 9.75 19.5347 9.8075 19.7493C9.96354 20.3316 10.4184 20.7865 11.0007 20.9425C11.2153 21 11.4769 21 12 21C12.5231 21 12.7847 21 12.9993 20.9425C13.5816 20.7865 14.0365 20.3316 14.1925 19.7493C14.25 19.5347 14.25 19.2731 14.25 18.75V16.5C14.25 15.4393 14.25 14.909 14.5795 14.5795C14.909 14.25 15.4393 14.25 16.5 14.25H18.75C19.2731 14.25 19.5347 14.25 19.7493 14.1925C20.3316 14.0365 20.7865 13.5816 20.9425 12.9993C21 12.7847 21 12.5231 21 12C21 11.4769 21 11.2153 20.9425 11.0007C20.7865 10.4184 20.3316 9.96354 19.7493 9.8075C19.5347 9.75 19.2731 9.75 18.75 9.75H16.5C15.4393 9.75 14.909 9.75 14.5795 9.42049C14.25 9.09099 14.25 8.56066 14.25 7.5Z" stroke="white" stroke-width="1.5" stroke-linecap="round" stroke-linejoin="round"/>
</svg>
